GIL02_fast3_ik
nRows=3
nColumns=375

# SIMM Motion File Header:
name GIL02_fast3_ik
datacolumns 375
datarows 3
otherdata 1
range 0.09167000 0.10833000
endheader
time	pelvis_tx	pelvis_ty	pelvis_tz	pelvis_tilt	pelvis_list	pelvis_rotation	hip_flexion_r	hip_adduction_r	hip_rotation_r	knee_angle_r	ankle_angle_r	hip_flexion_l	hip_adduction_l	hip_rotation_l	knee_angle_l	ankle_angle_l	lumbar_extension	lumbar_bending	lumbar_rotation	subtalar_angle_r	mtp_angle_r	subtalar_angle_l	mtp_angle_l	asis_r_px	asis_r_py	asis_r_pz	asis_l_px	asis_l_py	asis_l_pz	midasis_px	midasis_py	midasis_pz	psis_r_px	psis_r_py	psis_r_pz	psis_l_px	psis_l_py	psis_l_pz	hip_r_px	hip_r_py	hip_r_pz	hip_l_px	hip_l_py	hip_l_pz	midhip_px	midhip_py	midhip_pz	epicondLat_r_px	epicondLat_r_py	epicondLat_r_pz	epicondMed_r_px	epicondMed_r_py	epicondMed_r_pz	thighwand_r_px	thighwand_r_py	thighwand_r_pz	upperleg1_r_px	upperleg1_r_py	upperleg1_r_pz	upperleg2_r_px	upperleg2_r_py	upperleg2_r_pz	malleolusLat_r_px	malleolusLat_r_py	malleolusLat_r_pz	malleolusMedv_r_px	malleolusMedv_r_py	malleolusMedv_r_pz	shankwand_r_px	shankwand_r_py	shankwand_r_pz	lowerleg1_r_px	lowerleg1_r_py	lowerleg1_r_pz	knee_r_px	knee_r_py	knee_r_pz	ankle_r_px	ankle_r_py	ankle_r_pz	toe_r_px	toe_r_py	toe_r_pz	epicondLat_l_px	epicondLat_l_py	epicondLat_l_pz	epicondMed_l_px	epicondMed_l_py	epicondMed_l_pz	thighwand_l_px	thighwand_l_py	thighwand_l_pz	upperleg1_l_px	upperleg1_l_py	upperleg1_l_pz	upperleg2_l_px	upperleg2_l_py	upperleg2_l_pz	malleolusLat_l_px	malleolusLat_l_py	malleolusLat_l_pz	malleolusMedv_l_px	malleolusMedv_l_py	malleolusMedv_l_pz	shankwand_l_px	shankwand_l_py	shankwand_l_pz	lowerleg1_l_px	lowerleg1_l_py	lowerleg1_l_pz	knee_l_px	knee_l_py	knee_l_pz	ankle_l_px	ankle_l_py	ankle_l_pz	toe_l_px	toe_l_py	toe_l_pz	subclavicle_r_px	subclavicle_r_py	subclavicle_r_pz	subclavicle_l_px	subclavicle_l_py	subclavicle_l_pz	neck_px	neck_py	neck_pz	sternalnotch_px	sternalnotch_py	sternalnotch_pz	xyphoidprocess_px	xyphoidprocess_py	xyphoidprocess_pz	midhip_tx	midhip_ty	midhip_tz	hip_r_tx	hip_r_ty	hip_r_tz	hip_l_tx	hip_l_ty	hip_l_tz	knee_r_tx	knee_r_ty	knee_r_tz	knee_l_tx	knee_l_ty	knee_l_tz	ankle_r_tx	ankle_r_ty	ankle_r_tz	ankle_l_tx	ankle_l_ty	ankle_l_tz	midasis_tx	midasis_ty	midasis_tz	asis_r_tx	asis_r_ty	asis_r_tz	asis_l_tx	asis_l_ty	asis_l_tz	psis_r_tx	psis_r_ty	psis_r_tz	psis_l_tx	psis_l_ty	psis_l_tz	epicondLat_r_tx	epicondLat_r_ty	epicondLat_r_tz	epicondLat_l_tx	epicondLat_l_ty	epicondLat_l_tz	epicondMed_r_tx	epicondMed_r_ty	epicondMed_r_tz	epicondMed_l_tx	epicondMed_l_ty	epicondMed_l_tz	malleolusLat_r_tx	malleolusLat_r_ty	malleolusLat_r_tz	malleolusLat_l_tx	malleolusLat_l_ty	malleolusLat_l_tz	malleolusMedv_r_tx	malleolusMedv_r_ty	malleolusMedv_r_tz	malleolusMedv_l_tx	malleolusMedv_l_ty	malleolusMedv_l_tz	neck_tx	neck_ty	neck_tz	subclavicle_r_tx	subclavicle_r_ty	subclavicle_r_tz	subclavicle_l_tx	subclavicle_l_ty	subclavicle_l_tz	sternalnotch_tx	sternalnotch_ty	sternalnotch_tz	xyphoidprocess_tx	xyphoidprocess_ty	xyphoidprocess_tz	thighwand_r_tx	thighwand_r_ty	thighwand_r_tz	thighwand_l_tx	thighwand_l_ty	thighwand_l_tz	upperleg1_r_tx	upperleg1_r_ty	upperleg1_r_tz	upperleg1_l_tx	upperleg1_l_ty	upperleg1_l_tz	upperleg2_r_tx	upperleg2_r_ty	upperleg2_r_tz	upperleg2_l_tx	upperleg2_l_ty	upperleg2_l_tz	shankwand_r_tx	shankwand_r_ty	shankwand_r_tz	shankwand_l_tx	shankwand_l_ty	shankwand_l_tz	lowerleg1_r_tx	lowerleg1_r_ty	lowerleg1_r_tz	lowerleg1_l_tx	lowerleg1_l_ty	lowerleg1_l_tz	toe_r_tx	toe_r_ty	toe_r_tz	toe_l_tx	toe_l_ty	toe_l_tz	ground_force_vx	ground_force_vy	ground_force_vz	ground_force_px	ground_force_py	ground_force_pz	ground_force_vx	ground_force_vy	ground_force_vz	ground_force_px	ground_force_py	ground_force_pz	ground_torque_x	ground_torque_y	ground_torque_z	ground_torque_x	ground_torque_y	ground_torque_z	ground_marker_px	ground_marker_py	ground_marker_pz	ground_marker_px	ground_marker_py	ground_marker_pz	ground_marker_px	ground_marker_py	ground_marker_pz	ground_marker_px	ground_marker_py	ground_marker_pz	ground_marker_px	ground_marker_py	ground_marker_pz	ground_marker_px	ground_marker_py	ground_marker_pz	ground_marker_px	ground_marker_py	ground_marker_pz	ground_marker_px	ground_marker_py	ground_marker_pz	ground_marker_px	ground_marker_py	ground_marker_pz	ground_marker_px	ground_marker_py	ground_marker_pz	ground_marker_px	ground_marker_py	ground_marker_pz	ground_marker_px	ground_marker_py	ground_marker_pz	ground_marker_px	ground_marker_py	ground_marker_pz	ground_marker_px	ground_marker_py	ground_marker_pz	ground_marker_px	ground_marker_py	ground_marker_pz	ground_marker_px	ground_marker_py	ground_marker_pz	ground_marker_px	ground_marker_py	ground_marker_pz	ground_marker_px	ground_marker_py	ground_marker_pz	ground_marker_px	ground_marker_py	ground_marker_pz	ground_marker_px	ground_marker_py	ground_marker_pz	ground_marker_px	ground_marker_py	ground_marker_pz	ground_marker_px	ground_marker_py	ground_marker_pz	ground_marker_px	ground_marker_py	ground_marker_pz	ground_marker_px	ground_marker_py	ground_marker_pz	ground_marker_px	ground_marker_py	ground_marker_pz	ground_marker_px	ground_marker_py	ground_marker_pz	ground_marker_px	ground_marker_py	ground_marker_pz	ground_marker_px	ground_marker_py	ground_marker_pz	ground_marker_px	ground_marker_py	ground_marker_pz	ground_marker_px	ground_marker_py	ground_marker_pz	ground_marker_px	ground_marker_py	ground_marker_pz	ground_marker_px	ground_marker_py	ground_marker_pz	ground_marker_px	ground_marker_py	ground_marker_pz	ground_marker_px	ground_marker_py	ground_marker_pz	ground_marker_px	ground_marker_py	ground_marker_pz	ground_marker_px	ground_marker_py	ground_marker_pz	ground_marker_px	ground_marker_py	ground_marker_pz
      0.09167000	      0.53131226	      0.93076549	     -0.19978659	      0.34245116	     -2.02445534	      3.40941841	     21.07189875	      2.79093922	      2.60167315	    -16.71675886	     -4.07174399	     -7.77610676	     -4.31210313	     -5.35575332	    -40.95967999	    -36.76467284	     -2.10509651	      5.90790014	     -4.85725255	      0.00000000	      0.00000000	      0.00000000	      0.00000000	      0.58453831	      0.93533093	     -0.08551522	      0.57263701	      0.93332320	     -0.32336890	      0.54431367	      0.93081584	     -0.20056068	      0.39434825	      0.98643746	     -0.16328717	      0.39479144	      0.98226580	     -0.24916036	      0.47062578	      0.87182323	     -0.11620893	      0.46141912	      0.86628942	     -0.27120122	      0.46602245	      0.86905633	     -0.19370507	      0.65491687	      0.48284648	     -0.05952988	      0.61239705	      0.47663409	     -0.16305193	      0.67029195	      0.60864821	      0.00687437	      0.64915244	      0.67215365	     -0.06192925	      0.67235609	      0.58822070	     -0.08347887	      0.64284267	      0.06628748	     -0.08789185	      0.65476106	      0.08329793	     -0.15668803	      0.66706250	      0.19922980	     -0.00058048	      0.64766540	      0.16750759	     -0.07242993	      0.62083116	      0.47935552	     -0.13156123	      0.65258991	      0.08295667	     -0.13268573	      0.77465304	      0.04309888	     -0.11996558	      0.40481634	      0.43462699	     -0.35603893	      0.41265636	      0.43568247	     -0.24565682	      0.57604339	      0.51278889	     -0.31420729	      0.51381440	      0.58291011	     -0.34246027	      0.48239015	      0.50182827	     -0.34194481	      0.07869490	      0.19294309	     -0.29112695	      0.11475156	      0.17856186	     -0.23643813	      0.18576289	      0.26863489	     -0.39005044	      0.15892813	      0.25157286	     -0.31517624	      0.40718571	      0.44548083	     -0.28517187	      0.11146318	      0.18115725	     -0.25648116	      0.08115815	      0.06300760	     -0.28930313	      0.48443847	      1.32942469	     -0.11821716	      0.50057895	      1.33998002	     -0.22481717	      0.35851571	      1.40080764	     -0.17566806	      0.47474010	      1.34145335	     -0.17060008	      0.56747416	      1.18388266	     -0.18407266	      0.46920600	      0.87865300	     -0.18335100	      0.46616800	      0.85867800	     -0.11110900	      0.45623200	      0.85290600	     -0.26109900	      0.61946600	      0.47263200	     -0.12077000	      0.40260800	      0.43804000	     -0.27279500	      0.65085200	      0.06883800	     -0.15155000	      0.10658600	      0.17419100	     -0.25885600	      0.54651000	      0.94329700	     -0.19512400	      0.55420500	      0.94776700	     -0.07897600	      0.53881500	      0.93882700	     -0.31127100	      0.36286400	      0.98145900	     -0.14740500	      0.36318300	      0.97959900	     -0.23317300	      0.62665000	      0.47403200	     -0.06273000	      0.39393500	      0.44077600	     -0.33007700	      0.59454500	      0.46306900	     -0.17756500	      0.41330400	      0.40732900	     -0.21707200	      0.64169000	      0.06517100	     -0.11278700	      0.08890700	      0.19246400	     -0.28842800	      0.65678700	      0.08594800	     -0.17925300	      0.12095200	      0.17595800	     -0.23369400	      0.35877800	      1.40204300	     -0.17640900	      0.48614700	      1.32791500	     -0.11706100	      0.49821500	      1.33795000	     -0.22376700	      0.47442800	      1.33976500	     -0.16914000	      0.56453700	      1.18106700	     -0.18543900	      0.63544000	      0.56966900	      0.01395400	      0.56782000	      0.48946000	     -0.31114600	      0.62612100	      0.64065200	     -0.04591400	      0.49888400	      0.55617800	     -0.32718900	      0.64881300	      0.55920300	     -0.07676000	      0.46519700	      0.47410700	     -0.32288800	      0.65761600	      0.19417200	     -0.01833500	      0.19266600	      0.28035200	     -0.37922500	      0.64158600	      0.16458800	     -0.09196700	      0.16435400	      0.25353800	     -0.30750000	      0.77350700	      0.04131400	     -0.14429400	      0.10463600	      0.05228100	     -0.25264400	   -127.40398709	    670.69938399	    -18.84961500	      0.66548468	      0.00000000	     -0.14532031	      0.00000000	      0.00000000	      0.00000000	      1.40737268	      0.00000000	     -0.21476926	      0.00000000	      1.12665417	      0.00000000	      0.00000000	      0.00000000	      0.00000000	      0.46920648	      0.87865347	     -0.18335073	      0.46616843	      0.85867822	     -0.11110941	      0.45623174	      0.85290599	     -0.26109919	      0.61946577	      0.47263187	     -0.12077007	      0.40260756	      0.43803969	     -0.27279463	      0.65085244	      0.06883760	     -0.15155032	      0.10658607	      0.17419122	     -0.25885567	      0.54650998	      0.94329685	     -0.19512352	      0.55420464	      0.94776666	     -0.07897563	      0.53881526	      0.93882704	     -0.31127140	      0.36286411	      0.98145878	     -0.14740548	      0.36318332	      0.97959924	     -0.23317263	      0.62665004	      0.47403228	     -0.06272978	      0.39393452	      0.44077560	     -0.33007720	      0.59454519	      0.46306890	     -0.17756470	      0.41330430	      0.40732902	     -0.21707205	      0.64169043	      0.06517060	     -0.11278679	      0.08890657	      0.19246420	     -0.28842816	      0.65678704	      0.08594792	     -0.17925267	      0.12095247	      0.17595842	     -0.23369406	      0.35877809	      1.40204334	     -0.17640939	      0.48614672	      1.32791531	     -0.11706105	      0.49821463	      1.33795035	     -0.22376694	      0.47442779	      1.33976460	     -0.16914029	      0.56453675	      1.18106735	     -0.18543892	      0.63543987	      0.56966889	      0.01395380	      0.56781983	      0.48945996	     -0.31114608	      0.62612063	      0.64065152	     -0.04591431	      0.49888408	      0.55617839	     -0.32718921	      0.64881253	      0.55920273	     -0.07676017	      0.46519718	      0.47410718	     -0.32288793	      0.65761644	      0.19417180	     -0.01833529	      0.19266626	      0.28035212	     -0.37922508	      0.64158565	      0.16458820	     -0.09196670	      0.16435416	      0.25353768	     -0.30750009	      0.77350658	      0.04131366	     -0.14429384	      0.10463557	      0.05228129	     -0.25264430
      0.10000000	      0.54445130	      0.93181854	     -0.19899341	      0.19876234	     -2.45130897	      3.28491385	     20.49575370	      3.43848085	      2.92664304	    -16.96242800	     -3.13780487	     -6.07195678	     -5.02431358	     -5.80244624	    -43.72661377	    -37.23628545	     -1.89397628	      6.57567172	     -4.83639240	      0.00000000	      0.00000000	      0.00000000	      0.00000000	      0.59743705	      0.93710574	     -0.08464151	      0.58605362	      0.93335665	     -0.32249947	      0.55745446	      0.93183173	     -0.19973905	      0.40754316	      0.98809117	     -0.16321256	      0.40816491	      0.98327948	     -0.24905116	      0.48343818	      0.87364663	     -0.11511437	      0.47455871	      0.86698173	     -0.27008124	      0.47899845	      0.87031418	     -0.19259780	      0.66303018	      0.48227550	     -0.05985145	      0.61973777	      0.47667206	     -0.16308764	      0.68048695	      0.60783107	      0.00650407	      0.65971310	      0.67164290	     -0.06212724	      0.68167735	      0.58742678	     -0.08387016	      0.64364999	      0.06587346	     -0.08810245	      0.65539870	      0.08267729	     -0.15697855	      0.67074612	      0.19837574	     -0.00096760	      0.65032295	      0.16699486	     -0.07268247	      0.62848028	      0.47926100	     -0.13166108	      0.65338298	      0.08237299	     -0.13296220	      0.77544522	      0.04236053	     -0.12072848	      0.42910998	      0.43460079	     -0.35791573	      0.43750706	      0.43504063	     -0.24757042	      0.59839816	      0.51702143	     -0.31636790	      0.53415996	      0.58565419	     -0.34376611	      0.50492631	      0.50375545	     -0.34370765	      0.09812932	      0.19870624	     -0.29057744	      0.13430236	      0.18354139	     -0.23617792	      0.20598008	      0.27221256	     -0.39029550	      0.17937832	      0.25566583	     -0.31522277	      0.43185138	      0.44433643	     -0.28705987	      0.13091308	      0.18621760	     -0.25619349	      0.09698390	      0.06891334	     -0.28849732	      0.49739177	      1.33040168	     -0.11666832	      0.51374693	      1.34143773	     -0.22318689	      0.37154442	      1.40196107	     -0.17406492	      0.48779471	      1.34265575	     -0.16901764	      0.58065392	      1.18520263	     -0.18299335	      0.48166600	      0.87941800	     -0.18202100	      0.47964800	      0.86029800	     -0.10939500	      0.46970900	      0.85333900	     -0.25933400	      0.62752500	      0.47289500	     -0.12030200	      0.42721700	      0.43683200	     -0.27344700	      0.65146500	      0.06869800	     -0.15179700	      0.12597800	      0.17968700	     -0.25946400	      0.56018600	      0.94405500	     -0.19408100	      0.56787700	      0.94943900	     -0.07805700	      0.55249500	      0.93867000	     -0.31010400	      0.37617100	      0.98320900	     -0.14777300	      0.37662900	      0.98029600	     -0.23352500	      0.63524600	      0.47421000	     -0.06232900	      0.41801700	      0.43970800	     -0.33064100	      0.60296000	      0.46427800	     -0.17770100	      0.44065500	      0.40507200	     -0.21703000	      0.64229500	      0.06513400	     -0.11302500	      0.10881100	      0.19818000	     -0.28920100	      0.65698700	      0.08593600	     -0.17940900	      0.13952800	      0.18149800	     -0.23424100	      0.37154700	      1.40286800	     -0.17446000	      0.49952400	      1.32915000	     -0.11601400	      0.51156300	      1.33883400	     -0.22297600	      0.48750000	      1.34082900	     -0.16818200	      0.57819100	      1.18221300	     -0.18398300	      0.64592800	      0.57001500	      0.01439200	      0.59065400	      0.49156800	     -0.31281500	      0.63680000	      0.64112900	     -0.04531100	      0.51953200	      0.55662600	     -0.32809900	      0.65873700	      0.55927900	     -0.07687300	      0.48897400	      0.47384200	     -0.32344700	      0.66073200	      0.19356600	     -0.01835400	      0.21446900	      0.28311000	     -0.37990800	      0.64459800	      0.16445800	     -0.09188000	      0.18577100	      0.25680400	     -0.30799600	      0.77399700	      0.04087700	     -0.14457900	      0.11978000	      0.05710800	     -0.25418600	   -124.96174526	    693.59527794	    -21.86831197	      0.66683386	      0.00000000	     -0.14502531	      0.00000000	      0.00000000	      0.00000000	      1.40870325	      0.00000000	     -0.21372437	      0.00000000	      1.15421692	      0.00000000	      0.00000000	      0.00000000	      0.00000000	      0.48166591	      0.87941802	     -0.18202111	      0.47964770	      0.86029750	     -0.10939470	      0.46970865	      0.85333949	     -0.25933400	      0.62752521	      0.47289479	     -0.12030244	      0.42721730	      0.43683156	     -0.27344736	      0.65146542	      0.06869839	     -0.15179659	      0.12597775	      0.17968658	     -0.25946420	      0.56018627	      0.94405460	     -0.19408065	      0.56787717	      0.94943869	     -0.07805695	      0.55249542	      0.93867046	     -0.31010437	      0.37617123	      0.98320866	     -0.14777304	      0.37662929	      0.98029625	     -0.23352537	      0.63524592	      0.47420961	     -0.06232906	      0.41801745	      0.43970814	     -0.33064076	      0.60295963	      0.46427834	     -0.17770113	      0.44065499	      0.40507245	     -0.21703042	      0.64229548	      0.06513429	     -0.11302534	      0.10881077	      0.19818026	     -0.28920102	      0.65698695	      0.08593582	     -0.17940873	      0.13952789	      0.18149804	     -0.23424135	      0.37154675	      1.40286839	     -0.17446023	      0.49952406	      1.32914960	     -0.11601425	      0.51156271	      1.33883381	     -0.22297624	      0.48750031	      1.34082866	     -0.16818196	      0.57819098	      1.18221343	     -0.18398321	      0.64592785	      0.57001477	      0.01439187	      0.59065449	      0.49156812	     -0.31281495	      0.63680023	      0.64112854	     -0.04531101	      0.51953232	      0.55662590	     -0.32809898	      0.65873718	      0.55927885	     -0.07687289	      0.48897359	      0.47384241	     -0.32344711	      0.66073167	      0.19356643	     -0.01835435	      0.21446858	      0.28311029	     -0.37990817	      0.64459795	      0.16445822	     -0.09188002	      0.18577136	      0.25680387	     -0.30799615	      0.77399719	      0.04087700	     -0.14457856	      0.11977967	      0.05710770	     -0.25418615
      0.10833000	      0.55739601	      0.93282668	     -0.19841261	      0.08963361	     -2.80899395	      3.22381114	     19.83744212	      3.97151278	      3.22537881	    -17.11381612	     -2.21788996	     -4.32915501	     -5.56180773	     -5.83356788	    -46.49474178	    -36.31641040	     -1.75822846	      7.09253786	     -4.43849877	      0.00000000	      0.00000000	      0.00000000	      0.00000000	      0.61026852	      0.93872930	     -0.08403840	      0.59913390	      0.93351689	     -0.32188057	      0.57039997	      0.93281113	     -0.19914419	      0.42055433	      0.98957503	     -0.16313236	      0.42125943	      0.98422656	     -0.24893854	      0.49618471	      0.87529251	     -0.11423862	      0.48745949	      0.86767704	     -0.26917046	      0.49182210	      0.87148478	     -0.19170454	      0.67073588	      0.48148581	     -0.06013871	      0.62670166	      0.47648615	     -0.16309178	      0.69034667	      0.60678428	      0.00610103	      0.67000691	      0.67088109	     -0.06239461	      0.69067017	      0.58637282	     -0.08427884	      0.64440672	      0.06537857	     -0.08812015	      0.65598218	      0.08197053	     -0.15707691	      0.67423133	      0.19744169	     -0.00121007	      0.65283310	      0.16638112	     -0.07277994	      0.63572080	      0.47894799	     -0.13172770	      0.65411743	      0.08170531	     -0.13304790	      0.77620089	      0.04162124	     -0.12126874	      0.45413229	      0.43462505	     -0.35910951	      0.46252205	      0.43476328	     -0.24876286	      0.62104870	      0.52155184	     -0.31715099	      0.55491135	      0.58849089	     -0.34421902	      0.52798303	      0.50580617	     -0.34456064	      0.11839109	      0.20440484	     -0.29034564	      0.15440454	      0.18865608	     -0.23600617	      0.22739973	      0.27554335	     -0.39052092	      0.20067908	      0.25969665	     -0.31533946	      0.45689168	      0.44342388	     -0.28828764	      0.15101487	      0.19135237	     -0.25601899	      0.11646954	      0.07431026	     -0.28861930	      0.51076847	      1.33136536	     -0.11591152	      0.52651468	      1.34274467	     -0.22248572	      0.38456265	      1.40304024	     -0.17236924	      0.50086904	      1.34377904	     -0.16816685	      0.59372564	      1.18641834	     -0.18316349	      0.49427100	      0.87988200	     -0.18131000	      0.49289000	      0.86167700	     -0.10793100	      0.48285300	      0.85377000	     -0.25781600	      0.63502600	      0.47300400	     -0.11986800	      0.45207600	      0.43603800	     -0.27388000	      0.65193200	      0.06858200	     -0.15192500	      0.14616800	      0.18531400	     -0.25967000	      0.57352400	      0.94474800	     -0.19320000	      0.58129700	      0.95087000	     -0.07714100	      0.56575200	      0.93862500	     -0.30926000	      0.38920900	      0.98474000	     -0.14802300	      0.38979500	      0.98082300	     -0.23376900	      0.64323800	      0.47422900	     -0.06196000	      0.44268000	      0.43892800	     -0.33104100	      0.61610000	      0.46639200	     -0.18106100	      0.46794700	      0.40248300	     -0.21760000	      0.64270100	      0.06512400	     -0.11315900	      0.12958100	      0.20385000	     -0.28970800	      0.65731400	      0.08569000	     -0.17957900	      0.15935700	      0.18789000	     -0.23425600	      0.38473000	      1.40404800	     -0.17277600	      0.51265800	      1.32991500	     -0.11534900	      0.52436100	      1.33990600	     -0.22266900	      0.50048500	      1.34183700	     -0.16734900	      0.59070400	      1.18298500	     -0.18420100	      0.65584300	      0.57014000	      0.01477600	      0.61380300	      0.49437800	     -0.31335900	      0.64715900	      0.64141700	     -0.04457600	      0.54083200	      0.55734100	     -0.32820400	      0.67032200	      0.55908900	     -0.07801100	      0.51349500	      0.47342300	     -0.32381300	      0.66336600	      0.19296500	     -0.01834600	      0.23736300	      0.28566400	     -0.38040100	      0.64662700	      0.16442900	     -0.09209800	      0.20776900	      0.26116400	     -0.30864100	      0.77433200	      0.04057700	     -0.14479800	      0.13797000	      0.06221100	     -0.25627900	   -120.07037232	    714.33883258	    -24.69863452	      0.66868744	      0.00000000	     -0.14460291	      0.00000000	      0.00000000	      0.00000000	      1.41005847	      0.00000000	     -0.21261542	      0.00000000	      1.11830786	      0.00000000	      0.00000000	      0.00000000	      0.00000000	      0.49427104	      0.87988240	     -0.18131045	      0.49289027	      0.86167729	     -0.10793081	      0.48285264	      0.85377038	     -0.25781646	      0.63502574	      0.47300440	     -0.11986788	      0.45207560	      0.43603757	     -0.27387980	      0.65193188	      0.06858248	     -0.15192518	      0.14616781	      0.18531428	     -0.25966978	      0.57352436	      0.94474757	     -0.19320045	      0.58129662	      0.95086998	     -0.07714132	      0.56575203	      0.93862510	     -0.30925959	      0.38920888	      0.98473966	     -0.14802296	      0.38979498	      0.98082268	     -0.23376898	      0.64323795	      0.47422907	     -0.06196012	      0.44268009	      0.43892783	     -0.33104071	      0.61609954	      0.46639168	     -0.18106073	      0.46794704	      0.40248272	     -0.21759970	      0.64270061	      0.06512369	     -0.11315893	      0.12958086	      0.20384958	     -0.28970835	      0.65731359	      0.08569010	     -0.17957911	      0.15935691	      0.18789040	     -0.23425573	      0.38472959	      1.40404844	     -0.17277646	      0.51265770	      1.32991493	     -0.11534885	      0.52436066	      1.33990586	     -0.22266921	      0.50048488	      1.34183693	     -0.16734912	      0.59070420	      1.18298495	     -0.18420117	      0.65584290	      0.57013953	      0.01477580	      0.61380297	      0.49437845	     -0.31335944	      0.64715880	      0.64141673	     -0.04457571	      0.54083234	      0.55734110	     -0.32820359	      0.67032248	      0.55908900	     -0.07801144	      0.51349479	      0.47342288	     -0.32381293	      0.66336608	      0.19296509	     -0.01834594	      0.23736303	      0.28566393	     -0.38040060	      0.64662689	      0.16442934	     -0.09209763	      0.20776939	      0.26116368	     -0.30864075	      0.77433193	      0.04057742	     -0.14479837	      0.13796958	      0.06221134	     -0.25627938
